<?xml version="1.0" standalone="no"?>
<!DOCTYPE svg PUBLIC "-//W3C//DTD SVG 20010904//EN"
 "http://www.w3.org/TR/2001/REC-SVG-20010904/DTD/svg10.dtd">
<svg version="1.0" xmlns="http://www.w3.org/2000/svg"
 width="83.000000pt" height="67.000000pt" viewBox="0 0 83.000000 67.000000"
 preserveAspectRatio="xMidYMid meet">

<g transform="translate(0.000000,67.000000) scale(0.100000,-0.100000)"
fill="#000000" stroke="none">
<path d="M368 633 c6 -2 18 -2 25 0 6 3 1 5 -13 5 -14 0 -19 -2 -12 -5z"/>
<path d="M318 623 c7 -3 16 -2 19 1 4 3 -2 6 -13 5 -11 0 -14 -3 -6 -6z"/>
<path d="M259 600 l-24 -20 27 13 c16 6 28 15 28 20 0 11 -6 9 -31 -13z"/>
<path d="M185 532 c-27 -41 -45 -94 -44 -127 0 -17 2 -17 11 5 6 14 12 35 14
48 3 27 42 92 55 92 5 0 9 5 9 10 0 21 -21 8 -45 -28z"/>
<path d="M243 362 c3 -53 9 -105 12 -114 7 -16 44 -24 150 -31 l40 -2 -2 104
c-2 134 -18 153 -28 33 -4 -49 -10 -94 -14 -101 -6 -8 -23 -7 -67 7 -66 20
-62 10 -50 135 l6 67 -26 0 -27 0 6 -98z"/>
<path d="M474 416 c-8 -21 3 -184 14 -200 4 -6 9 12 12 39 l5 50 54 -3 c29 -2
66 -8 82 -12 16 -5 31 -5 34 -1 2 5 2 31 -2 60 -7 63 -16 69 -117 78 -66 5
-76 4 -82 -11z m174 -63 l-3 -38 -45 3 c-76 4 -90 10 -90 36 0 33 6 36 77 36
l64 0 -3 -37z"/>
<path d="M140 358 c1 -40 55 -158 73 -158 8 0 -13 41 -27 51 -4 4 -9 21 -11
38 -1 17 -5 34 -9 38 -3 3 -6 15 -6 25 0 10 -4 18 -10 18 -5 0 -10 -6 -10 -12z"/>
<path d="M744 238 c-3 -18 -19 -51 -33 -73 -26 -39 -51 -89 -51 -102 0 -15 63
55 81 89 23 44 36 118 21 118 -6 0 -14 -15 -18 -32z"/>
<path d="M210 180 c0 -3 23 -28 50 -55 57 -56 67 -43 16 20 -30 36 -66 55 -66
35z m48 -36 c-4 -3 -12 5 -18 18 -12 22 -12 22 6 6 10 -10 15 -20 12 -24z"/>
<path d="M340 70 c0 -15 66 -44 84 -37 28 11 17 27 -18 27 -19 0 -38 5 -41 10
-8 13 -25 13 -25 0z"/>
<path d="M600 62 c-14 -2 -30 -8 -35 -13 -6 -4 -30 -7 -53 -6 -47 1 -62 -8
-42 -26 10 -9 11 -9 6 1 -5 8 0 12 14 12 13 0 19 -4 14 -11 -4 -7 0 -9 12 -6
11 3 38 9 62 12 24 4 46 13 49 21 7 19 4 21 -27 16z"/>
</g>
</svg>
